  0
SECTION
  2
HEADER
  9
$ACADVER
  1
AC1009
  9
$INSBASE
 10
0.0
 20
0.0
 30
0.0
  9
$EXTMIN
 10
0.0
 20
0.0
 30
0.0
  9
$EXTMAX
 10
0.0
 20
0.0
 30
0.0
  0
ENDSEC
  0
SECTION
  2
TABLES
  0
TABLE
  2
VPORT
 70
0
  0
ENDTAB
  0
TABLE
  2
LTYPE
 70
1
  0
LTYPE
  2
CONTINUOUS
 70
0
  3
Solid line
 72
65
 73
0
 40
0.0
  0
ENDTAB
  0
TABLE
  2
LAYER
 70
1
  0
LAYER
  2
0
 70
64
 62
7
  6
continuous
  0
ENDTAB
  0
TABLE
  2
STYLE
 70
1
  0
STYLE
  2
STANDARD
 70
0
 40
0
 41
1.0
 50
0.0
 71
0
 42
1
 3
ARIAL.TTF
 4

  0
ENDTAB
  0
TABLE
  2
VIEW
 70
0
  0
ENDTAB
  0
ENDSEC
  0
SECTION
  2
BLOCKS
  0
BLOCK
  8
0
  2
SKETCH
 70
0
 10
0.0
 20
0.0
 30
0.0
  3
SKETCH
  0
POLYLINE
  8
0
 62
7
 70
0
 66
1
 10
0.0
 20
0.0
 30
0.0
  0
VERTEX
  8
0
 10
-1.690523
 20
12.373308
 30
0.0
  0
VERTEX
  8
0
 10
-1.690523
 20
10.877869571
 30
0.0
  0
VERTEX
  8
0
 10
1.699982
 20
10.877869571
 30
0.0
  0
VERTEX
  8
0
 10
1.699982
 20
12.377868119
 30
0.0
  0
SEQEND
  8
0
  0
ARC
  8
0
 62
7
 10
0.0
 20
0.0
 30
0.0
 40
12.49306
 50
97.7866099035
 51
82.1707994845
  0
ENDBLK
  0
ENDSEC
  0
SECTION
  2
ENTITIES
  0
POLYLINE
  8
0
 62
0
 70
1
 66
1
 10
0.0
 20
0.0
 30
0.0
  0
VERTEX
  8
0
 10
14.9692983801
 20
-0.959221563135
 30
0.0
  0
VERTEX
  8
0
 10
15.0257318202
 20
-0.962064789468
 30
0.0
  0
VERTEX
  8
0
 10
15.5392385998
 20
-0.899960481842
 30
0.0
  0
VERTEX
  8
0
 10
16.996954085
 20
-0.371162144777
 30
0.0
 42
0.0109178349111
  0
VERTEX
  8
0
 10
16.996954085
 20
0.371162144777
 30
0.0
  0
VERTEX
  8
0
 10
15.5392385998
 20
0.899960481842
 30
0.0
  0
VERTEX
  8
0
 10
15.0257318202
 20
0.962064789468
 30
0.0
  0
VERTEX
  8
0
 10
14.9692983801
 20
0.959221563135
 30
0.0
 42
-0.329154707837
  0
VERTEX
  8
0
 10
14.69190914
 20
1.30778661147
 30
0.0
 42
0.00469738020319
  0
VERTEX
  8
0
 10
14.6647447367
 20
1.58359142672
 30
0.0
 42
-0.329154707837
  0
VERTEX
  8
0
 10
14.8688023528
 20
1.97957485156
 30
0.0
  0
VERTEX
  8
0
 10
14.9247061262
 20
1.98779587503
 30
0.0
  0
VERTEX
  8
0
 10
15.4162300676
 20
2.14888706879
 30
0.0
  0
VERTEX
  8
0
 10
16.7427725206
 20
2.9519108775
 30
0.0
 42
0.0109178349111
  0
VERTEX
  8
0
 10
16.5979522359
 20
3.67997161398
 30
0.0
  0
VERTEX
  8
0
 10
15.0650829072
 20
3.91422305586
 30
0.0
  0
VERTEX
  8
0
 10
14.549327067
 20
3.87495384364
 30
0.0
  0
VERTEX
  8
0
 10
14.4945326655
 20
3.8611556311
 30
0.0
 42
-0.329154707837
  0
VERTEX
  8
0
 10
14.1544717144
 20
4.1489071436
 30
0.0
 42
0.00469738020319
  0
VERTEX
  8
0
 10
14.0740224173
 20
4.41411293447
 30
0.0
 42
-0.329154707837
  0
VERTEX
  8
0
 10
14.1969065896
 20
4.84229731487
 30
0.0
  0
VERTEX
  8
0
 10
14.2501323455
 20
4.86126665883
 30
0.0
  0
VERTEX
  8
0
 10
14.7007844594
 20
5.11515409448
 30
0.0
  0
VERTEX
  8
0
 10
15.8451755977
 20
6.16154362021
 30
0.0
 42
0.0109178349111
  0
VERTEX
  8
0
 10
15.5611003907
 20
6.84736183782
 30
0.0
  0
VERTEX
  8
0
 10
14.011984527
 20
6.77806423297
 30
0.0
  0
VERTEX
  8
0
 10
13.5137998339
 20
6.63893059471
 30
0.0
  0
VERTEX
  8
0
 10
13.4627501893
 20
6.61470765352
 30
0.0
 42
-0.329154707837
  0
VERTEX
  8
0
 10
13.0730858787
 20
6.83058750093
 30
0.0
 42
0.00469738020323
  0
VERTEX
  8
0
 10
12.9424433091
 20
7.07500255761
 30
0.0
 42
-0.329154707837
  0
VERTEX
  8
0
 10
12.9794316679
 20
7.51893300797
 30
0.0
  0
VERTEX
  8
0
 10
13.0279339704
 20
7.54792169115
 30
0.0
  0
VERTEX
  8
0
 10
13.4203959487
 20
7.88484861693
 30
0.0
  0
VERTEX
  8
0
 10
14.3386574627
 20
9.13439169703
 30
0.0
 42
0.0109178349111
  0
VERTEX
  8
0
 10
13.9262441841
 20
9.75161178627
 30
0.0
  0
VERTEX
  8
0
 10
12.4204134395
 20
9.38142820278
 30
0.0
  0
VERTEX
  8
0
 10
11.9589448519
 20
9.14777696617
 30
0.0
  0
VERTEX
  8
0
 10
11.9136017732
 20
9.11406017039
 30
0.0
 42
-0.329154707837
  0
VERTEX
  8
0
 10
11.4893086842
 20
9.24977221124
 30
0.0
 42
0.00469738020321
  0
VERTEX
  8
0
 10
11.3134933628
 20
9.46400380017
 30
0.0
 42
-0.329154707837
  0
VERTEX
  8
0
 10
11.2631644661
 20
9.90662032223
 30
0.0
  0
VERTEX
  8
0
 10
11.305079399
 20
9.94451432581
 30
0.0
  0
VERTEX
  8
0
 10
11.6242691479
 20
10.3515328289
 30
0.0
  0
VERTEX
  8
0
 10
12.2811127625
 20
11.7562102236
 30
0.0
 42
0.0109178349111
  0
VERTEX
  8
0
 10
11.7562102236
 20
12.2811127625
 30
0.0
  0
VERTEX
  8
0
 10
10.3515328289
 20
11.6242691479
 30
0.0
  0
VERTEX
  8
0
 10
9.94451432581
 20
11.305079399
 30
0.0
  0
VERTEX
  8
0
 10
9.90662032223
 20
11.2631644661
 30
0.0
 42
-0.329154707837
  0
VERTEX
  8
0
 10
9.46400380017
 20
11.3134933628
 30
0.0
 42
0.00469738020323
  0
VERTEX
  8
0
 10
9.24977221124
 20
11.4893086842
 30
0.0
 42
-0.329154707837
  0
VERTEX
  8
0
 10
9.11406017039
 20
11.9136017732
 30
0.0
  0
VERTEX
  8
0
 10
9.14777696617
 20
11.9589448519
 30
0.0
  0
VERTEX
  8
0
 10
9.38142820278
 20
12.4204134395
 30
0.0
  0
VERTEX
  8
0
 10
9.75161178627
 20
13.9262441841
 30
0.0
 42
0.0109178349111
  0
VERTEX
  8
0
 10
9.13439169703
 20
14.3386574627
 30
0.0
  0
VERTEX
  8
0
 10
7.88484861693
 20
13.4203959487
 30
0.0
  0
VERTEX
  8
0
 10
7.54792169115
 20
13.0279339704
 30
0.0
  0
VERTEX
  8
0
 10
7.51893300797
 20
12.9794316679
 30
0.0
 42
-0.329154707837
  0
VERTEX
  8
0
 10
7.07500255761
 20
12.9424433091
 30
0.0
 42
0.00469738020322
  0
VERTEX
  8
0
 10
6.83058750093
 20
13.0730858787
 30
0.0
 42
-0.329154707837
  0
VERTEX
  8
0
 10
6.61470765352
 20
13.4627501893
 30
0.0
  0
VERTEX
  8
0
 10
6.63893059471
 20
13.5137998339
 30
0.0
  0
VERTEX
  8
0
 10
6.77806423297
 20
14.011984527
 30
0.0
  0
VERTEX
  8
0
 10
6.84736183782
 20
15.5611003907
 30
0.0
 42
0.0109178349111
  0
VERTEX
  8
0
 10
6.16154362021
 20
15.8451755977
 30
0.0
  0
VERTEX
  8
0
 10
5.11515409448
 20
14.7007844594
 30
0.0
  0
VERTEX
  8
0
 10
4.86126665883
 20
14.2501323455
 30
0.0
  0
VERTEX
  8
0
 10
4.84229731487
 20
14.1969065896
 30
0.0
 42
-0.329154707837
  0
VERTEX
  8
0
 10
4.41411293447
 20
14.0740224173
 30
0.0
 42
0.00469738020321
  0
VERTEX
  8
0
 10
4.1489071436
 20
14.1544717144
 30
0.0
 42
-0.329154707837
  0
VERTEX
  8
0
 10
3.8611556311
 20
14.4945326655
 30
0.0
  0
VERTEX
  8
0
 10
3.87495384364
 20
14.549327067
 30
0.0
  0
VERTEX
  8
0
 10
3.91422305586
 20
15.0650829072
 30
0.0
  0
VERTEX
  8
0
 10
3.67997161398
 20
16.5979522359
 30
0.0
 42
0.0109178349111
  0
VERTEX
  8
0
 10
2.9519108775
 20
16.7427725206
 30
0.0
  0
VERTEX
  8
0
 10
2.14888706879
 20
15.4162300676
 30
0.0
  0
VERTEX
  8
0
 10
1.98779587503
 20
14.9247061262
 30
0.0
  0
VERTEX
  8
0
 10
1.97957485156
 20
14.8688023528
 30
0.0
 42
-0.329154707837
  0
VERTEX
  8
0
 10
1.58359142672
 20
14.6647447367
 30
0.0
 42
0.0046973802032
  0
VERTEX
  8
0
 10
1.30778661147
 20
14.69190914
 30
0.0
 42
-0.329154707837
  0
VERTEX
  8
0
 10
0.959221563135
 20
14.9692983801
 30
0.0
  0
VERTEX
  8
0
 10
0.962064789468
 20
15.0257318202
 30
0.0
  0
VERTEX
  8
0
 10
0.899960481842
 20
15.5392385998
 30
0.0
  0
VERTEX
  8
0
 10
0.371162144777
 20
16.996954085
 30
0.0
 42
0.0109178349111
  0
VERTEX
  8
0
 10
-0.371162144777
 20
16.996954085
 30
0.0
  0
VERTEX
  8
0
 10
-0.899960481842
 20
15.5392385998
 30
0.0
  0
VERTEX
  8
0
 10
-0.962064789468
 20
15.0257318202
 30
0.0
  0
VERTEX
  8
0
 10
-0.959221563135
 20
14.9692983801
 30
0.0
 42
-0.329154707837
  0
VERTEX
  8
0
 10
-1.30778661147
 20
14.69190914
 30
0.0
 42
0.00469738020319
  0
VERTEX
  8
0
 10
-1.58359142672
 20
14.6647447367
 30
0.0
 42
-0.329154707837
  0
VERTEX
  8
0
 10
-1.97957485156
 20
14.8688023528
 30
0.0
  0
VERTEX
  8
0
 10
-1.98779587503
 20
14.9247061262
 30
0.0
  0
VERTEX
  8
0
 10
-2.14888706879
 20
15.4162300676
 30
0.0
  0
VERTEX
  8
0
 10
-2.9519108775
 20
16.7427725206
 30
0.0
 42
0.0109178349111
  0
VERTEX
  8
0
 10
-3.67997161398
 20
16.5979522359
 30
0.0
  0
VERTEX
  8
0
 10
-3.91422305586
 20
15.0650829072
 30
0.0
  0
VERTEX
  8
0
 10
-3.87495384364
 20
14.549327067
 30
0.0
  0
VERTEX
  8
0
 10
-3.8611556311
 20
14.4945326655
 30
0.0
 42
-0.329154707837
  0
VERTEX
  8
0
 10
-4.1489071436
 20
14.1544717144
 30
0.0
 42
0.00469738020322
  0
VERTEX
  8
0
 10
-4.41411293447
 20
14.0740224173
 30
0.0
 42
-0.329154707837
  0
VERTEX
  8
0
 10
-4.84229731487
 20
14.1969065896
 30
0.0
  0
VERTEX
  8
0
 10
-4.86126665883
 20
14.2501323455
 30
0.0
  0
VERTEX
  8
0
 10
-5.11515409448
 20
14.7007844594
 30
0.0
  0
VERTEX
  8
0
 10
-6.16154362021
 20
15.8451755977
 30
0.0
 42
0.0109178349111
  0
VERTEX
  8
0
 10
-6.84736183782
 20
15.5611003907
 30
0.0
  0
VERTEX
  8
0
 10
-6.77806423297
 20
14.011984527
 30
0.0
  0
VERTEX
  8
0
 10
-6.63893059471
 20
13.5137998339
 30
0.0
  0
VERTEX
  8
0
 10
-6.61470765352
 20
13.4627501893
 30
0.0
 42
-0.329154707837
  0
VERTEX
  8
0
 10
-6.83058750093
 20
13.0730858787
 30
0.0
 42
0.00469738020324
  0
VERTEX
  8
0
 10
-7.07500255761
 20
12.9424433091
 30
0.0
 42
-0.329154707837
  0
VERTEX
  8
0
 10
-7.51893300797
 20
12.9794316679
 30
0.0
  0
VERTEX
  8
0
 10
-7.54792169115
 20
13.0279339704
 30
0.0
  0
VERTEX
  8
0
 10
-7.88484861693
 20
13.4203959487
 30
0.0
  0
VERTEX
  8
0
 10
-9.13439169703
 20
14.3386574627
 30
0.0
 42
0.0109178349111
  0
VERTEX
  8
0
 10
-9.75161178627
 20
13.9262441841
 30
0.0
  0
VERTEX
  8
0
 10
-9.38142820278
 20
12.4204134395
 30
0.0
  0
VERTEX
  8
0
 10
-9.14777696617
 20
11.9589448519
 30
0.0
  0
VERTEX
  8
0
 10
-9.11406017039
 20
11.9136017732
 30
0.0
 42
-0.329154707837
  0
VERTEX
  8
0
 10
-9.24977221124
 20
11.4893086842
 30
0.0
 42
0.00469738020321
  0
VERTEX
  8
0
 10
-9.46400380017
 20
11.3134933628
 30
0.0
 42
-0.329154707837
  0
VERTEX
  8
0
 10
-9.90662032223
 20
11.2631644661
 30
0.0
  0
VERTEX
  8
0
 10
-9.94451432581
 20
11.305079399
 30
0.0
  0
VERTEX
  8
0
 10
-10.3515328289
 20
11.6242691479
 30
0.0
  0
VERTEX
  8
0
 10
-11.7562102236
 20
12.2811127625
 30
0.0
 42
0.0109178349111
  0
VERTEX
  8
0
 10
-12.2811127625
 20
11.7562102236
 30
0.0
  0
VERTEX
  8
0
 10
-11.6242691479
 20
10.3515328289
 30
0.0
  0
VERTEX
  8
0
 10
-11.305079399
 20
9.94451432581
 30
0.0
  0
VERTEX
  8
0
 10
-11.2631644661
 20
9.90662032223
 30
0.0
 42
-0.329154707837
  0
VERTEX
  8
0
 10
-11.3134933628
 20
9.46400380017
 30
0.0
 42
0.00469738020323
  0
VERTEX
  8
0
 10
-11.4893086842
 20
9.24977221124
 30
0.0
 42
-0.329154707837
  0
VERTEX
  8
0
 10
-11.9136017732
 20
9.11406017039
 30
0.0
  0
VERTEX
  8
0
 10
-11.9589448519
 20
9.14777696617
 30
0.0
  0
VERTEX
  8
0
 10
-12.4204134395
 20
9.38142820278
 30
0.0
  0
VERTEX
  8
0
 10
-13.9262441841
 20
9.75161178627
 30
0.0
 42
0.0109178349111
  0
VERTEX
  8
0
 10
-14.3386574627
 20
9.13439169703
 30
0.0
  0
VERTEX
  8
0
 10
-13.4203959487
 20
7.88484861693
 30
0.0
  0
VERTEX
  8
0
 10
-13.0279339704
 20
7.54792169115
 30
0.0
  0
VERTEX
  8
0
 10
-12.9794316679
 20
7.51893300797
 30
0.0
 42
-0.329154707837
  0
VERTEX
  8
0
 10
-12.9424433091
 20
7.07500255761
 30
0.0
 42
0.00469738020322
  0
VERTEX
  8
0
 10
-13.0730858787
 20
6.83058750093
 30
0.0
 42
-0.329154707837
  0
VERTEX
  8
0
 10
-13.4627501893
 20
6.61470765352
 30
0.0
  0
VERTEX
  8
0
 10
-13.5137998339
 20
6.63893059471
 30
0.0
  0
VERTEX
  8
0
 10
-14.011984527
 20
6.77806423297
 30
0.0
  0
VERTEX
  8
0
 10
-15.5611003907
 20
6.84736183782
 30
0.0
 42
0.0109178349111
  0
VERTEX
  8
0
 10
-15.8451755977
 20
6.16154362021
 30
0.0
  0
VERTEX
  8
0
 10
-14.7007844594
 20
5.11515409448
 30
0.0
  0
VERTEX
  8
0
 10
-14.2501323455
 20
4.86126665883
 30
0.0
  0
VERTEX
  8
0
 10
-14.1969065896
 20
4.84229731487
 30
0.0
 42
-0.329154707837
  0
VERTEX
  8
0
 10
-14.0740224173
 20
4.41411293447
 30
0.0
 42
0.00469738020323
  0
VERTEX
  8
0
 10
-14.1544717144
 20
4.1489071436
 30
0.0
 42
-0.329154707837
  0
VERTEX
  8
0
 10
-14.4945326655
 20
3.8611556311
 30
0.0
  0
VERTEX
  8
0
 10
-14.549327067
 20
3.87495384364
 30
0.0
  0
VERTEX
  8
0
 10
-15.0650829072
 20
3.91422305586
 30
0.0
  0
VERTEX
  8
0
 10
-16.5979522359
 20
3.67997161398
 30
0.0
 42
0.0109178349111
  0
VERTEX
  8
0
 10
-16.7427725206
 20
2.9519108775
 30
0.0
  0
VERTEX
  8
0
 10
-15.4162300676
 20
2.14888706879
 30
0.0
  0
VERTEX
  8
0
 10
-14.9247061262
 20
1.98779587503
 30
0.0
  0
VERTEX
  8
0
 10
-14.8688023528
 20
1.97957485156
 30
0.0
 42
-0.329154707837
  0
VERTEX
  8
0
 10
-14.6647447367
 20
1.58359142672
 30
0.0
 42
0.0046973802032
  0
VERTEX
  8
0
 10
-14.69190914
 20
1.30778661147
 30
0.0
 42
-0.329154707837
  0
VERTEX
  8
0
 10
-14.9692983801
 20
0.959221563135
 30
0.0
  0
VERTEX
  8
0
 10
-15.0257318202
 20
0.962064789468
 30
0.0
  0
VERTEX
  8
0
 10
-15.5392385998
 20
0.899960481842
 30
0.0
  0
VERTEX
  8
0
 10
-16.996954085
 20
0.371162144777
 30
0.0
 42
0.0109178349111
  0
VERTEX
  8
0
 10
-16.996954085
 20
-0.371162144777
 30
0.0
  0
VERTEX
  8
0
 10
-15.5392385998
 20
-0.899960481842
 30
0.0
  0
VERTEX
  8
0
 10
-15.0257318202
 20
-0.962064789468
 30
0.0
  0
VERTEX
  8
0
 10
-14.9692983801
 20
-0.959221563135
 30
0.0
 42
-0.329154707837
  0
VERTEX
  8
0
 10
-14.69190914
 20
-1.30778661147
 30
0.0
 42
0.00469738020319
  0
VERTEX
  8
0
 10
-14.6647447367
 20
-1.58359142672
 30
0.0
 42
-0.329154707837
  0
VERTEX
  8
0
 10
-14.8688023528
 20
-1.97957485156
 30
0.0
  0
VERTEX
  8
0
 10
-14.9247061262
 20
-1.98779587503
 30
0.0
  0
VERTEX
  8
0
 10
-15.4162300676
 20
-2.14888706879
 30
0.0
  0
VERTEX
  8
0
 10
-16.7427725206
 20
-2.9519108775
 30
0.0
 42
0.0109178349111
  0
VERTEX
  8
0
 10
-16.5979522359
 20
-3.67997161398
 30
0.0
  0
VERTEX
  8
0
 10
-15.0650829072
 20
-3.91422305586
 30
0.0
  0
VERTEX
  8
0
 10
-14.549327067
 20
-3.87495384364
 30
0.0
  0
VERTEX
  8
0
 10
-14.4945326655
 20
-3.8611556311
 30
0.0
 42
-0.329154707837
  0
VERTEX
  8
0
 10
-14.1544717144
 20
-4.1489071436
 30
0.0
 42
0.00469738020322
  0
VERTEX
  8
0
 10
-14.0740224173
 20
-4.41411293447
 30
0.0
 42
-0.329154707837
  0
VERTEX
  8
0
 10
-14.1969065896
 20
-4.84229731487
 30
0.0
  0
VERTEX
  8
0
 10
-14.2501323455
 20
-4.86126665883
 30
0.0
  0
VERTEX
  8
0
 10
-14.7007844594
 20
-5.11515409448
 30
0.0
  0
VERTEX
  8
0
 10
-15.8451755977
 20
-6.16154362021
 30
0.0
 42
0.0109178349111
  0
VERTEX
  8
0
 10
-15.5611003907
 20
-6.84736183782
 30
0.0
  0
VERTEX
  8
0
 10
-14.011984527
 20
-6.77806423297
 30
0.0
  0
VERTEX
  8
0
 10
-13.5137998339
 20
-6.63893059471
 30
0.0
  0
VERTEX
  8
0
 10
-13.4627501893
 20
-6.61470765352
 30
0.0
 42
-0.329154707837
  0
VERTEX
  8
0
 10
-13.0730858787
 20
-6.83058750093
 30
0.0
 42
0.00469738020321
  0
VERTEX
  8
0
 10
-12.9424433091
 20
-7.07500255761
 30
0.0
 42
-0.329154707837
  0
VERTEX
  8
0
 10
-12.9794316679
 20
-7.51893300797
 30
0.0
  0
VERTEX
  8
0
 10
-13.0279339704
 20
-7.54792169115
 30
0.0
  0
VERTEX
  8
0
 10
-13.4203959487
 20
-7.88484861693
 30
0.0
  0
VERTEX
  8
0
 10
-14.3386574627
 20
-9.13439169703
 30
0.0
 42
0.0109178349111
  0
VERTEX
  8
0
 10
-13.9262441841
 20
-9.75161178627
 30
0.0
  0
VERTEX
  8
0
 10
-12.4204134395
 20
-9.38142820278
 30
0.0
  0
VERTEX
  8
0
 10
-11.9589448519
 20
-9.14777696617
 30
0.0
  0
VERTEX
  8
0
 10
-11.9136017732
 20
-9.11406017039
 30
0.0
 42
-0.329154707837
  0
VERTEX
  8
0
 10
-11.4893086842
 20
-9.24977221124
 30
0.0
 42
0.00469738020321
  0
VERTEX
  8
0
 10
-11.3134933628
 20
-9.46400380017
 30
0.0
 42
-0.329154707837
  0
VERTEX
  8
0
 10
-11.2631644661
 20
-9.90662032223
 30
0.0
  0
VERTEX
  8
0
 10
-11.305079399
 20
-9.94451432581
 30
0.0
  0
VERTEX
  8
0
 10
-11.6242691479
 20
-10.3515328289
 30
0.0
  0
VERTEX
  8
0
 10
-12.2811127625
 20
-11.7562102236
 30
0.0
 42
0.0109178349111
  0
VERTEX
  8
0
 10
-11.7562102236
 20
-12.2811127625
 30
0.0
  0
VERTEX
  8
0
 10
-10.3515328289
 20
-11.6242691479
 30
0.0
  0
VERTEX
  8
0
 10
-9.94451432581
 20
-11.305079399
 30
0.0
  0
VERTEX
  8
0
 10
-9.90662032223
 20
-11.2631644661
 30
0.0
 42
-0.329154707837
  0
VERTEX
  8
0
 10
-9.46400380017
 20
-11.3134933628
 30
0.0
 42
0.00469738020323
  0
VERTEX
  8
0
 10
-9.24977221124
 20
-11.4893086842
 30
0.0
 42
-0.329154707837
  0
VERTEX
  8
0
 10
-9.11406017039
 20
-11.9136017732
 30
0.0
  0
VERTEX
  8
0
 10
-9.14777696617
 20
-11.9589448519
 30
0.0
  0
VERTEX
  8
0
 10
-9.38142820278
 20
-12.4204134395
 30
0.0
  0
VERTEX
  8
0
 10
-9.75161178627
 20
-13.9262441841
 30
0.0
 42
0.0109178349111
  0
VERTEX
  8
0
 10
-9.13439169703
 20
-14.3386574627
 30
0.0
  0
VERTEX
  8
0
 10
-7.88484861693
 20
-13.4203959487
 30
0.0
  0
VERTEX
  8
0
 10
-7.54792169115
 20
-13.0279339704
 30
0.0
  0
VERTEX
  8
0
 10
-7.51893300797
 20
-12.9794316679
 30
0.0
 42
-0.329154707837
  0
VERTEX
  8
0
 10
-7.07500255761
 20
-12.9424433091
 30
0.0
 42
0.00469738020322
  0
VERTEX
  8
0
 10
-6.83058750093
 20
-13.0730858787
 30
0.0
 42
-0.329154707837
  0
VERTEX
  8
0
 10
-6.61470765352
 20
-13.4627501893
 30
0.0
  0
VERTEX
  8
0
 10
-6.63893059471
 20
-13.5137998339
 30
0.0
  0
VERTEX
  8
0
 10
-6.77806423297
 20
-14.011984527
 30
0.0
  0
VERTEX
  8
0
 10
-6.84736183782
 20
-15.5611003907
 30
0.0
 42
0.0109178349111
  0
VERTEX
  8
0
 10
-6.16154362021
 20
-15.8451755977
 30
0.0
  0
VERTEX
  8
0
 10
-5.11515409448
 20
-14.7007844594
 30
0.0
  0
VERTEX
  8
0
 10
-4.86126665883
 20
-14.2501323455
 30
0.0
  0
VERTEX
  8
0
 10
-4.84229731487
 20
-14.1969065896
 30
0.0
 42
-0.329154707837
  0
VERTEX
  8
0
 10
-4.41411293447
 20
-14.0740224173
 30
0.0
 42
0.00469738020321
  0
VERTEX
  8
0
 10
-4.1489071436
 20
-14.1544717144
 30
0.0
 42
-0.329154707837
  0
VERTEX
  8
0
 10
-3.8611556311
 20
-14.4945326655
 30
0.0
  0
VERTEX
  8
0
 10
-3.87495384364
 20
-14.549327067
 30
0.0
  0
VERTEX
  8
0
 10
-3.91422305586
 20
-15.0650829072
 30
0.0
  0
VERTEX
  8
0
 10
-3.67997161398
 20
-16.5979522359
 30
0.0
 42
0.0109178349111
  0
VERTEX
  8
0
 10
-2.9519108775
 20
-16.7427725206
 30
0.0
  0
VERTEX
  8
0
 10
-2.14888706879
 20
-15.4162300676
 30
0.0
  0
VERTEX
  8
0
 10
-1.98779587503
 20
-14.9247061262
 30
0.0
  0
VERTEX
  8
0
 10
-1.97957485156
 20
-14.8688023528
 30
0.0
 42
-0.329154707837
  0
VERTEX
  8
0
 10
-1.58359142672
 20
-14.6647447367
 30
0.0
 42
0.00469738020321
  0
VERTEX
  8
0
 10
-1.30778661147
 20
-14.69190914
 30
0.0
 42
-0.329154707837
  0
VERTEX
  8
0
 10
-0.959221563135
 20
-14.9692983801
 30
0.0
  0
VERTEX
  8
0
 10
-0.962064789468
 20
-15.0257318202
 30
0.0
  0
VERTEX
  8
0
 10
-0.899960481842
 20
-15.5392385998
 30
0.0
  0
VERTEX
  8
0
 10
-0.371162144777
 20
-16.996954085
 30
0.0
 42
0.0109178349111
  0
VERTEX
  8
0
 10
0.371162144777
 20
-16.996954085
 30
0.0
  0
VERTEX
  8
0
 10
0.899960481842
 20
-15.5392385998
 30
0.0
  0
VERTEX
  8
0
 10
0.962064789468
 20
-15.0257318202
 30
0.0
  0
VERTEX
  8
0
 10
0.959221563135
 20
-14.9692983801
 30
0.0
 42
-0.329154707837
  0
VERTEX
  8
0
 10
1.30778661147
 20
-14.69190914
 30
0.0
 42
0.00469738020319
  0
VERTEX
  8
0
 10
1.58359142672
 20
-14.6647447367
 30
0.0
 42
-0.329154707837
  0
VERTEX
  8
0
 10
1.97957485156
 20
-14.8688023528
 30
0.0
  0
VERTEX
  8
0
 10
1.98779587503
 20
-14.9247061262
 30
0.0
  0
VERTEX
  8
0
 10
2.14888706879
 20
-15.4162300676
 30
0.0
  0
VERTEX
  8
0
 10
2.9519108775
 20
-16.7427725206
 30
0.0
 42
0.0109178349111
  0
VERTEX
  8
0
 10
3.67997161398
 20
-16.5979522359
 30
0.0
  0
VERTEX
  8
0
 10
3.91422305586
 20
-15.0650829072
 30
0.0
  0
VERTEX
  8
0
 10
3.87495384364
 20
-14.549327067
 30
0.0
  0
VERTEX
  8
0
 10
3.8611556311
 20
-14.4945326655
 30
0.0
 42
-0.329154707837
  0
VERTEX
  8
0
 10
4.1489071436
 20
-14.1544717144
 30
0.0
 42
0.00469738020322
  0
VERTEX
  8
0
 10
4.41411293447
 20
-14.0740224173
 30
0.0
 42
-0.329154707837
  0
VERTEX
  8
0
 10
4.84229731487
 20
-14.1969065896
 30
0.0
  0
VERTEX
  8
0
 10
4.86126665883
 20
-14.2501323455
 30
0.0
  0
VERTEX
  8
0
 10
5.11515409448
 20
-14.7007844594
 30
0.0
  0
VERTEX
  8
0
 10
6.16154362021
 20
-15.8451755977
 30
0.0
 42
0.0109178349111
  0
VERTEX
  8
0
 10
6.84736183782
 20
-15.5611003907
 30
0.0
  0
VERTEX
  8
0
 10
6.77806423297
 20
-14.011984527
 30
0.0
  0
VERTEX
  8
0
 10
6.63893059471
 20
-13.5137998339
 30
0.0
  0
VERTEX
  8
0
 10
6.61470765352
 20
-13.4627501893
 30
0.0
 42
-0.329154707837
  0
VERTEX
  8
0
 10
6.83058750093
 20
-13.0730858787
 30
0.0
 42
0.00469738020323
  0
VERTEX
  8
0
 10
7.07500255761
 20
-12.9424433091
 30
0.0
 42
-0.329154707837
  0
VERTEX
  8
0
 10
7.51893300797
 20
-12.9794316679
 30
0.0
  0
VERTEX
  8
0
 10
7.54792169115
 20
-13.0279339704
 30
0.0
  0
VERTEX
  8
0
 10
7.88484861693
 20
-13.4203959487
 30
0.0
  0
VERTEX
  8
0
 10
9.13439169703
 20
-14.3386574627
 30
0.0
 42
0.0109178349111
  0
VERTEX
  8
0
 10
9.75161178627
 20
-13.9262441841
 30
0.0
  0
VERTEX
  8
0
 10
9.38142820278
 20
-12.4204134395
 30
0.0
  0
VERTEX
  8
0
 10
9.14777696617
 20
-11.9589448519
 30
0.0
  0
VERTEX
  8
0
 10
9.11406017039
 20
-11.9136017732
 30
0.0
 42
-0.329154707837
  0
VERTEX
  8
0
 10
9.24977221124
 20
-11.4893086842
 30
0.0
 42
0.00469738020321
  0
VERTEX
  8
0
 10
9.46400380017
 20
-11.3134933628
 30
0.0
 42
-0.329154707837
  0
VERTEX
  8
0
 10
9.90662032223
 20
-11.2631644661
 30
0.0
  0
VERTEX
  8
0
 10
9.94451432581
 20
-11.305079399
 30
0.0
  0
VERTEX
  8
0
 10
10.3515328289
 20
-11.6242691479
 30
0.0
  0
VERTEX
  8
0
 10
11.7562102236
 20
-12.2811127625
 30
0.0
 42
0.0109178349111
  0
VERTEX
  8
0
 10
12.2811127625
 20
-11.7562102236
 30
0.0
  0
VERTEX
  8
0
 10
11.6242691479
 20
-10.3515328289
 30
0.0
  0
VERTEX
  8
0
 10
11.305079399
 20
-9.94451432581
 30
0.0
  0
VERTEX
  8
0
 10
11.2631644661
 20
-9.90662032223
 30
0.0
 42
-0.329154707837
  0
VERTEX
  8
0
 10
11.3134933628
 20
-9.46400380017
 30
0.0
 42
0.00469738020322
  0
VERTEX
  8
0
 10
11.4893086842
 20
-9.24977221124
 30
0.0
 42
-0.329154707837
  0
VERTEX
  8
0
 10
11.9136017732
 20
-9.11406017039
 30
0.0
  0
VERTEX
  8
0
 10
11.9589448519
 20
-9.14777696617
 30
0.0
  0
VERTEX
  8
0
 10
12.4204134395
 20
-9.38142820278
 30
0.0
  0
VERTEX
  8
0
 10
13.9262441841
 20
-9.75161178627
 30
0.0
 42
0.0109178349111
  0
VERTEX
  8
0
 10
14.3386574627
 20
-9.13439169703
 30
0.0
  0
VERTEX
  8
0
 10
13.4203959487
 20
-7.88484861693
 30
0.0
  0
VERTEX
  8
0
 10
13.0279339704
 20
-7.54792169115
 30
0.0
  0
VERTEX
  8
0
 10
12.9794316679
 20
-7.51893300797
 30
0.0
 42
-0.329154707837
  0
VERTEX
  8
0
 10
12.9424433091
 20
-7.07500255761
 30
0.0
 42
0.00469738020322
  0
VERTEX
  8
0
 10
13.0730858787
 20
-6.83058750093
 30
0.0
 42
-0.329154707837
  0
VERTEX
  8
0
 10
13.4627501893
 20
-6.61470765352
 30
0.0
  0
VERTEX
  8
0
 10
13.5137998339
 20
-6.63893059471
 30
0.0
  0
VERTEX
  8
0
 10
14.011984527
 20
-6.77806423297
 30
0.0
  0
VERTEX
  8
0
 10
15.5611003907
 20
-6.84736183782
 30
0.0
 42
0.0109178349111
  0
VERTEX
  8
0
 10
15.8451755977
 20
-6.16154362021
 30
0.0
  0
VERTEX
  8
0
 10
14.7007844594
 20
-5.11515409448
 30
0.0
  0
VERTEX
  8
0
 10
14.2501323455
 20
-4.86126665883
 30
0.0
  0
VERTEX
  8
0
 10
14.1969065896
 20
-4.84229731487
 30
0.0
 42
-0.329154707837
  0
VERTEX
  8
0
 10
14.0740224173
 20
-4.41411293447
 30
0.0
 42
0.00469738020321
  0
VERTEX
  8
0
 10
14.1544717144
 20
-4.1489071436
 30
0.0
 42
-0.329154707837
  0
VERTEX
  8
0
 10
14.4945326655
 20
-3.8611556311
 30
0.0
  0
VERTEX
  8
0
 10
14.549327067
 20
-3.87495384364
 30
0.0
  0
VERTEX
  8
0
 10
15.0650829072
 20
-3.91422305586
 30
0.0
  0
VERTEX
  8
0
 10
16.5979522359
 20
-3.67997161398
 30
0.0
 42
0.0109178349111
  0
VERTEX
  8
0
 10
16.7427725206
 20
-2.9519108775
 30
0.0
  0
VERTEX
  8
0
 10
15.4162300676
 20
-2.14888706879
 30
0.0
  0
VERTEX
  8
0
 10
14.9247061262
 20
-1.98779587503
 30
0.0
  0
VERTEX
  8
0
 10
14.8688023528
 20
-1.97957485156
 30
0.0
 42
-0.329154707837
  0
VERTEX
  8
0
 10
14.6647447367
 20
-1.58359142672
 30
0.0
 42
0.00469738020321
  0
VERTEX
  8
0
 10
14.69190914
 20
-1.30778661147
 30
0.0
 42
-0.329154707837
  0
SEQEND
  8
0
  0
INSERT
  2
SKETCH
  8
0
 62
7
 10
0.0
 20
0.0
 30
0.0
  0
ENDSEC
  0
EOF
